<svg width="344" height="84" viewBox="0 0 344 84" fill="none" xmlns="http://www.w3.org/2000/svg">
<path d="M99.2202 46.5375C99.2202 42.9064 99.8993 39.7186 101.256 36.9742C102.656 34.2298 104.545 32.1186 106.92 30.6408C109.295 29.1631 111.947 28.4242 114.874 28.4242C117.208 28.4242 119.328 28.9098 121.237 29.8808C123.189 30.8519 124.716 32.1608 125.819 33.8075V17.4042H136.7V64.2708H125.819V59.2042C124.801 60.8931 123.337 62.2442 121.428 63.2575C119.562 64.2708 117.377 64.7775 114.874 64.7775C111.947 64.7775 109.295 64.0386 106.92 62.5608C104.545 61.0408 102.656 58.9086 101.256 56.1642C99.8993 53.3775 99.2202 50.1686 99.2202 46.5375ZM125.819 46.6008C125.819 43.8986 125.055 41.7664 123.528 40.2042C122.044 38.6419 120.219 37.8608 118.056 37.8608C115.892 37.8608 114.047 38.6419 112.52 40.2042C111.035 41.7242 110.292 43.8353 110.292 46.5375C110.292 49.2398 111.035 51.3931 112.52 52.9975C114.047 54.5598 115.892 55.3408 118.056 55.3408C120.219 55.3408 122.044 54.5598 123.528 52.9975C125.055 51.4353 125.819 49.3031 125.819 46.6008ZM160.736 64.7775C157.257 64.7775 154.118 64.0386 151.318 62.5608C148.56 61.0831 146.375 58.9719 144.764 56.2275C143.194 53.4831 142.409 50.2742 142.409 46.6008C142.409 42.9698 143.215 39.7819 144.826 37.0375C146.439 34.2508 148.645 32.1186 151.445 30.6408C154.245 29.1631 157.384 28.4242 160.863 28.4242C164.341 28.4242 167.481 29.1631 170.281 30.6408C173.081 32.1186 175.286 34.2508 176.899 37.0375C178.51 39.7819 179.317 42.9698 179.317 46.6008C179.317 50.2319 178.489 53.4408 176.835 56.2275C175.222 58.9719 172.995 61.0831 170.153 62.5608C167.354 64.0386 164.214 64.7775 160.736 64.7775ZM160.736 55.4042C162.814 55.4042 164.575 54.6442 166.017 53.1242C167.502 51.6042 168.244 49.4298 168.244 46.6008C168.244 43.7719 167.523 41.5975 166.081 40.0775C164.681 38.5575 162.941 37.7975 160.863 37.7975C158.741 37.7975 156.981 38.5575 155.581 40.0775C154.181 41.5553 153.481 43.7298 153.481 46.6008C153.481 49.4298 154.16 51.6042 155.518 53.1242C156.918 54.6442 158.657 55.4042 160.736 55.4042Z" fill="#5686E1"/>
<path d="M193.107 34.3142V54.7708C193.107 56.4598 193.467 57.6631 194.189 58.3808C194.91 59.0564 196.161 59.3942 197.942 59.3942H202.206V64.2708H196.989C193.764 64.2708 191.346 63.5319 189.734 62.0542C188.122 60.5764 187.316 58.1486 187.316 54.7708V34.3142H182.798V29.5642H187.316V20.8242H193.107V29.5642H202.206V34.3142H193.107ZM207.059 46.7908C207.059 43.2442 207.779 40.1408 209.222 37.4808C210.665 34.7786 212.637 32.6886 215.14 31.2108C217.685 29.7331 220.506 28.9942 223.603 28.9942C226.658 28.9942 229.309 29.6486 231.557 30.9575C233.805 32.2664 235.482 33.9131 236.584 35.8975V29.5642H242.439V64.2708H236.584V57.8108C235.439 59.8375 233.721 61.5264 231.43 62.8775C229.182 64.1864 226.551 64.8408 223.54 64.8408C220.442 64.8408 217.643 64.0808 215.14 62.5608C212.637 61.0408 210.665 58.9086 209.222 56.1642C207.779 53.4198 207.059 50.2953 207.059 46.7908ZM236.584 46.8542C236.584 44.2364 236.054 41.9564 234.994 40.0142C233.933 38.0719 232.491 36.5942 230.666 35.5808C228.885 34.5253 226.912 33.9975 224.749 33.9975C222.585 33.9975 220.612 34.5042 218.831 35.5175C217.049 36.5308 215.628 38.0086 214.567 39.9508C213.506 41.8931 212.976 44.1731 212.976 46.7908C212.976 49.4508 213.506 51.7731 214.567 53.7575C215.628 55.6998 217.049 57.1986 218.831 58.2542C220.612 59.2675 222.585 59.7742 224.749 59.7742C226.912 59.7742 228.885 59.2675 230.666 58.2542C232.491 57.1986 233.933 55.6998 234.994 53.7575C236.054 51.7731 236.584 49.4719 236.584 46.8542ZM264.569 64.8408C261.896 64.8408 259.499 64.3975 257.378 63.5108C255.258 62.5819 253.581 61.3153 252.351 59.7108C251.122 58.0642 250.442 56.1853 250.315 54.0742H256.297C256.467 55.8053 257.272 57.2198 258.715 58.3175C260.199 59.4153 262.13 59.9642 264.505 59.9642C266.712 59.9642 268.451 59.4786 269.723 58.5075C270.996 57.5364 271.632 56.3119 271.632 54.8342C271.632 53.3142 270.953 52.1953 269.596 51.4775C268.239 50.7175 266.139 49.9786 263.296 49.2608C260.708 48.5853 258.588 47.9098 256.933 47.2342C255.321 46.5164 253.921 45.4819 252.733 44.1308C251.588 42.7375 251.015 40.9219 251.015 38.6842C251.015 36.9108 251.545 35.2853 252.606 33.8075C253.667 32.3298 255.172 31.1686 257.124 30.3242C259.076 29.4375 261.303 28.9942 263.805 28.9942C267.666 28.9942 270.784 29.9653 273.16 31.9075C275.535 33.8498 276.807 36.5098 276.978 39.8875H271.187C271.06 38.0719 270.317 36.6153 268.96 35.5175C267.644 34.4198 265.863 33.8708 263.615 33.8708C261.536 33.8708 259.881 34.3142 258.651 35.2008C257.421 36.0875 256.806 37.2486 256.806 38.6842C256.806 39.8242 257.167 40.7742 257.888 41.5342C258.651 42.2519 259.585 42.8431 260.687 43.3075C261.833 43.7298 263.403 44.2153 265.396 44.7642C267.899 45.4398 269.935 46.1153 271.505 46.7908C273.075 47.4242 274.411 48.3953 275.514 49.7042C276.659 51.0131 277.253 52.7231 277.296 54.8342C277.296 56.7342 276.766 58.4442 275.705 59.9642C274.644 61.4842 273.139 62.6875 271.187 63.5742C269.278 64.4186 267.072 64.8408 264.569 64.8408ZM304.942 64.2708L291.261 48.9442V64.2708H285.471V17.4042H291.261V44.9542L304.688 29.5642H312.769L296.352 46.8542L312.833 64.2708H304.942ZM330.564 64.8408C327.891 64.8408 325.494 64.3975 323.373 63.5108C321.252 62.5819 319.576 61.3153 318.346 59.7108C317.116 58.0642 316.437 56.1853 316.31 54.0742H322.291C322.461 55.8053 323.267 57.2198 324.709 58.3175C326.194 59.4153 328.125 59.9642 330.5 59.9642C332.706 59.9642 334.445 59.4786 335.718 58.5075C336.991 57.5364 337.627 56.3119 337.627 54.8342C337.627 53.3142 336.948 52.1953 335.591 51.4775C334.234 50.7175 332.134 49.9786 329.291 49.2608C326.703 48.5853 324.582 47.9098 322.928 47.2342C321.316 46.5164 319.916 45.4819 318.728 44.1308C317.582 42.7375 317.01 40.9219 317.01 38.6842C317.01 36.9108 317.54 35.2853 318.601 33.8075C319.661 32.3298 321.167 31.1686 323.119 30.3242C325.07 29.4375 327.297 28.9942 329.8 28.9942C333.661 28.9942 336.779 29.9653 339.154 31.9075C341.529 33.8498 342.802 36.5098 342.972 39.8875H337.182C337.054 38.0719 336.312 36.6153 334.954 35.5175C333.639 34.4198 331.857 33.8708 329.609 33.8708C327.53 33.8708 325.876 34.3142 324.646 35.2008C323.416 36.0875 322.8 37.2486 322.8 38.6842C322.8 39.8242 323.161 40.7742 323.882 41.5342C324.646 42.2519 325.579 42.8431 326.682 43.3075C327.827 43.7298 329.397 44.2153 331.391 44.7642C333.893 45.4398 335.93 46.1153 337.5 46.7908C339.07 47.4242 340.406 48.3953 341.509 49.7042C342.654 51.0131 343.248 52.7231 343.29 54.8342C343.29 56.7342 342.76 58.4442 341.699 59.9642C340.639 61.4842 339.133 62.6875 337.182 63.5742C335.273 64.4186 333.066 64.8408 330.564 64.8408Z" fill="#4F4C4C"/>
<path d="M77.553 0.9375H4.97135C2.22575 0.9375 0 3.15276 0 5.88542V78.125C0 80.8577 2.22575 83.0729 4.97135 83.0729H77.553C80.2986 83.0729 82.5244 80.8577 82.5244 78.125V5.88542C82.5244 3.15276 80.2986 0.9375 77.553 0.9375Z" fill="#D9D9D9"/>
<path d="M52.1992 60.3125L91.4729 22.2135" stroke="#5686E1" stroke-width="6" stroke-linecap="round"/>
<path d="M33.3081 60.3125L72.5817 22.2135" stroke="#5686E1" stroke-width="6" stroke-linecap="round"/>
<path d="M32.8108 60.3125L11.9312 40.5209" stroke="#5686E1" stroke-width="6" stroke-linecap="round"/>
<path d="M40.7651 50.4167L29.8281 40.5209" stroke="#5686E1" stroke-width="6" stroke-linecap="round"/>
</svg>
